<svg width="40" height="40" viewBox="0 0 40 40" fill="none" xmlns="http://www.w3.org/2000/svg">
<path d="M14.9998 18.3333C16.8408 18.3333 18.3332 16.8409 18.3332 15C18.3332 13.159 16.8408 11.6666 14.9998 11.6666C13.1589 11.6666 11.6665 13.159 11.6665 15C11.6665 16.8409 13.1589 18.3333 14.9998 18.3333Z" stroke="black" stroke-width="2.5"/>
<path d="M21.6666 25C21.6666 26.8416 21.6666 28.3333 14.9999 28.3333C8.33325 28.3333 8.33325 26.8416 8.33325 25C8.33325 23.1583 11.3166 21.6666 14.9999 21.6666C18.6833 21.6666 21.6666 23.1583 21.6666 25Z" stroke="black" stroke-width="2.5"/>
<path d="M3.33325 20C3.33325 13.715 3.33325 10.5716 5.28659 8.61996C7.23992 6.66829 10.3816 6.66663 16.6666 6.66663H23.3333C29.6183 6.66663 32.7616 6.66663 34.7132 8.61996C36.6649 10.5733 36.6666 13.715 36.6666 20C36.6666 26.285 36.6666 29.4283 34.7132 31.38C32.7599 33.3316 29.6183 33.3333 23.3333 33.3333H16.6666C10.3816 33.3333 7.23825 33.3333 5.28659 31.38C3.33492 29.4266 3.33325 26.285 3.33325 20Z" stroke="black" stroke-width="2.5"/>
<path d="M31.6666 20H24.9999M31.6666 15H23.3333M31.6666 25H26.6666" stroke="black" stroke-width="2.5" stroke-linecap="round"/>
</svg>
