<svg width="37" height="36" viewBox="0 0 37 30" fill="none" xmlns="http://www.w3.org/2000/svg">
<g id="Group">
<path id="Vector" d="M13.5001 13.3334C15.341 13.3334 16.8334 11.841 16.8334 10C16.8334 8.15907 15.341 6.66669 13.5001 6.66669C11.6591 6.66669 10.1667 8.15907 10.1667 10C10.1667 11.841 11.6591 13.3334 13.5001 13.3334Z" stroke="black" stroke-width="2.5"/>
<path id="Vector_2" d="M20.1667 20C20.1667 21.8417 20.1667 23.3334 13.5 23.3334C6.83337 23.3334 6.83337 21.8417 6.83337 20C6.83337 18.1584 9.81671 16.6667 13.5 16.6667C17.1834 16.6667 20.1667 18.1584 20.1667 20Z" stroke="black" stroke-width="2.5"/>
<path id="Vector_3" d="M1.83337 15C1.83337 8.71502 1.83337 5.57169 3.78671 3.62002C5.74004 1.66835 8.88171 1.66669 15.1667 1.66669H21.8334C28.1184 1.66669 31.2617 1.66669 33.2134 3.62002C35.165 5.57335 35.1667 8.71502 35.1667 15C35.1667 21.285 35.1667 24.4284 33.2134 26.38C31.26 28.3317 28.1184 28.3334 21.8334 28.3334H15.1667C8.88171 28.3334 5.73837 28.3334 3.78671 26.38C1.83504 24.4267 1.83337 21.285 1.83337 15Z" stroke="black" stroke-width="2.5"/>
<path id="Vector_4" d="M30.1667 15H23.5M30.1667 10H21.8334M30.1667 20H25.1667" stroke="black" stroke-width="2.5" stroke-linecap="round"/>
</g>
</svg>
