<svg width="33" height="36" viewBox="0 0 33 36" fill="none" xmlns="http://www.w3.org/2000/svg">
<g id="Group">
<path id="Vector" d="M15 14.6668C18.6819 14.6668 21.6667 11.6821 21.6667 8.00016C21.6667 4.31826 18.6819 1.3335 15 1.3335C11.3181 1.3335 8.33337 4.31826 8.33337 8.00016C8.33337 11.6821 11.3181 14.6668 15 14.6668Z" stroke="black" stroke-width="2.5"/>
<path id="Vector_2" d="M20 20.2121C18.3587 19.8455 16.6817 19.6627 15 19.6671C7.63669 19.6671 1.66669 23.0254 1.66669 27.1671C1.66669 31.3087 1.66669 34.6671 15 34.6671C24.4784 34.6671 27.2184 32.9704 28.0117 30.5004" stroke="black" stroke-width="2.5"/>
<path id="Vector_3" d="M25 31.3333C28.6819 31.3333 31.6667 28.3486 31.6667 24.6667C31.6667 20.9848 28.6819 18 25 18C21.3181 18 18.3334 20.9848 18.3334 24.6667C18.3334 28.3486 21.3181 31.3333 25 31.3333Z" stroke="black" stroke-width="2.5"/>
<path id="Vector_4" d="M25 22.4453V26.8886M22.7784 24.667H27.2217" stroke="black" stroke-width="2.5" stroke-linecap="round" stroke-linejoin="round"/>
</g>
</svg>
