<svg width="40" height="40" viewBox="0 0 40 40" fill="none" xmlns="http://www.w3.org/2000/svg">
<path d="M20.0002 16.6667C23.6821 16.6667 26.6668 13.6819 26.6668 10C26.6668 6.31814 23.6821 3.33337 20.0002 3.33337C16.3183 3.33337 13.3335 6.31814 13.3335 10C13.3335 13.6819 16.3183 16.6667 20.0002 16.6667Z" stroke="black" stroke-width="2.5"/>
<path d="M25.0001 22.2117C23.3588 21.8451 21.6818 21.6623 20.0001 21.6667C12.6367 21.6667 6.66675 25.025 6.66675 29.1667C6.66675 33.3084 6.66675 36.6667 20.0001 36.6667C29.4784 36.6667 32.2184 34.97 33.0117 32.5" stroke="black" stroke-width="2.5"/>
<path d="M30.0002 33.3333C33.6821 33.3333 36.6668 30.3486 36.6668 26.6667C36.6668 22.9848 33.6821 20 30.0002 20C26.3183 20 23.3335 22.9848 23.3335 26.6667C23.3335 30.3486 26.3183 33.3333 30.0002 33.3333Z" stroke="black" stroke-width="2.5"/>
<path d="M30 24.4451V28.8884M27.7783 26.6667H32.2217" stroke="black" stroke-width="2.5" stroke-linecap="round" stroke-linejoin="round"/>
</svg>
