<svg width="40" height="40" viewBox="0 0 40 40" fill="none" xmlns="http://www.w3.org/2000/svg"> <path d="M33.6385 16.5748H6.36154C5.06923 16.5748 4.51538 15.1671 5.53077 14.4978L19.1692 5.56706C19.421 5.41893 19.7079 5.34082 20 5.34082C20.2921 5.34082 20.579 5.41893 20.8308 5.56706L34.4692 14.4978C35.4846 15.1671 34.9308 16.5748 33.6385 16.5748ZM33.8462 29.2671H6.15385C5.84783 29.2671 5.55434 29.3886 5.33795 29.605C5.12157 29.8214 5 30.1149 5 30.4209V33.8824C5 34.1885 5.12157 34.482 5.33795 34.6983C5.55434 34.9147 5.84783 35.0363 6.15385 35.0363H33.8462C34.1522 35.0363 34.4457 34.9147 34.6621 34.6983C34.8784 34.482 35 34.1885 35 33.8824V30.4209C35 30.1149 34.8784 29.8214 34.6621 29.605C34.4457 29.3886 34.1522 29.2671 33.8462 29.2671Z" stroke="black" stroke-width="2.30769" stroke-linecap="round" stroke-linejoin="round"></path> <g opacity="1"> <path d="M9 17V30" stroke="black" stroke-width="2.31" opacity="0.5"></path> <path d="M16 17V30" stroke="black" stroke-width="2.31" opacity="0.5"></path> <path d="M24 17V30" stroke="black" stroke-width="2.31" opacity="0.5"></path> <path d="M31 17V30" stroke="black" stroke-width="2.31" opacity="0.5"></path> </g> </svg>