<svg width="34" height="33" viewBox="0 0 34 33" fill="none" xmlns="http://www.w3.org/2000/svg">
<path id="Vector" d="M30.6385 12.5748H3.36154C2.06923 12.5748 1.51538 11.1671 2.53077 10.4978L16.1692 1.56706C16.421 1.41893 16.7079 1.34082 17 1.34082C17.2921 1.34082 17.579 1.41893 17.8308 1.56706L31.4692 10.4978C32.4846 11.1671 31.9308 12.5748 30.6385 12.5748ZM30.8462 25.2671H3.15385C2.84783 25.2671 2.55434 25.3886 2.33795 25.605C2.12157 25.8214 2 26.1149 2 26.4209V29.8824C2 30.1885 2.12157 30.482 2.33795 30.6983C2.55434 30.9147 2.84783 31.0363 3.15385 31.0363H30.8462C31.1522 31.0363 31.4457 30.9147 31.6621 30.6983C31.8784 30.482 32 30.1885 32 29.8824V26.4209C32 26.1149 31.8784 25.8214 31.6621 25.605C31.4457 25.3886 31.1522 25.2671 30.8462 25.2671Z" stroke="black" stroke-width="2.30769" stroke-linecap="round" stroke-linejoin="round"/>
</svg>
