<svg width="100" height="100" viewBox="0 0 100 100" fill="none" xmlns="http://www.w3.org/2000/svg">
<path d="M100 50C100 77.6142 77.6142 100 50 100C22.3858 100 0 77.6142 0 50C0 22.3858 22.3858 0 50 0C77.6142 0 100 22.3858 100 50ZM11.9026 50C11.9026 71.0406 28.9594 88.0974 50 88.0974C71.0406 88.0974 88.0974 71.0406 88.0974 50C88.0974 28.9594 71.0406 11.9026 50 11.9026C28.9594 11.9026 11.9026 28.9594 11.9026 50Z" fill="#DFE9FA"/>
<circle cx="50" cy="50" r="50" transform="rotate(-90 50 50)" fill="#65E239"/>
<circle cx="94" cy="50" r="6" transform="rotate(-90 94 50)" fill="#65E239"/>
<circle cx="50" cy="6" r="6" transform="rotate(-90 50 6)" fill="#65E239"/>
<path d="M75.3337 31.0002L40.5003 65.8336L24.667 50.0002" stroke="white" stroke-width="8.33333" stroke-linecap="round" stroke-linejoin="round"/>
</svg>
