<svg width="36" height="36" viewBox="0 0 36 36" fill="none" xmlns="http://www.w3.org/2000/svg">
<g id="Group">
<path id="Vector" d="M34.6666 34.6666H1.33331" stroke="black" stroke-width="2.5" stroke-linecap="round"/>
<path id="Vector_2" d="M33 34.6666V7.99998C33 4.85665 33 3.28665 32.0233 2.30998C31.0466 1.33331 29.4766 1.33331 26.3333 1.33331H23C19.8566 1.33331 18.2866 1.33331 17.31 2.30998C16.5233 3.09498 16.37 4.26665 16.34 6.33331" stroke="black" stroke-width="2.5"/>
<path id="Vector_3" d="M23 34.6666V13C23 9.85665 23 8.28665 22.0233 7.30998C21.0467 6.33331 19.4767 6.33331 16.3333 6.33331H9.66667C6.52333 6.33331 4.95333 6.33331 3.97667 7.30998C3 8.28665 3 9.85665 3 13V34.6666" stroke="black" stroke-width="2.5"/>
<path id="Vector_4" d="M13 34.6666V29.6666" stroke="black" stroke-width="2.5" stroke-linecap="round"/>
<path id="Vector_5" d="M8 11.3333H18M8 16.3333H18M8 21.3333H18" stroke="black" stroke-width="2.5" stroke-linecap="round"/>
</g>
</svg>
