<svg width="36" height="36" viewBox="0 0 36 36" fill="none" xmlns="http://www.w3.org/2000/svg">
<g id="Group">
<path id="Vector" d="M34.6666 34.6667H1.33331" stroke="white" stroke-width="2.5" stroke-linecap="round"/>
<path id="Vector_2" d="M33 34.6667V8.00004C33 4.85671 33 3.28671 32.0233 2.31004C31.0466 1.33337 29.4766 1.33337 26.3333 1.33337H23C19.8566 1.33337 18.2866 1.33337 17.31 2.31004C16.5233 3.09504 16.37 4.26671 16.34 6.33337" stroke="white" stroke-width="2.5"/>
<path id="Vector_3" d="M23 34.6667V13C23 9.85671 23 8.28671 22.0233 7.31004C21.0467 6.33337 19.4767 6.33337 16.3333 6.33337H9.66667C6.52333 6.33337 4.95333 6.33337 3.97667 7.31004C3 8.28671 3 9.85671 3 13V34.6667" stroke="white" stroke-width="2.5"/>
<path id="Vector_4" d="M13 34.6667V29.6667" stroke="white" stroke-width="2.5" stroke-linecap="round"/>
<path id="Vector_5" d="M8 11.3334H18M8 16.3334H18M8 21.3334H18" stroke="white" stroke-width="2.5" stroke-linecap="round"/>
</g>
</svg>
