<svg width="36" height="36" viewBox="0 0 36 36" fill="none" xmlns="http://www.w3.org/2000/svg">
<g id="Group">
<path id="Vector" d="M18 26.3335V16.3335" stroke="black" stroke-width="2.5" stroke-linecap="round" opacity="0.5"/>
<path id="Vector_2" d="M18 9.66667C18.9205 9.66667 19.6667 10.4129 19.6667 11.3333C19.6667 12.2538 18.9205 13 18 13C17.0796 13 16.3334 12.2538 16.3334 11.3333C16.3334 10.4129 17.0796 9.66667 18 9.66667Z" fill="black" opacity="0.5"/>
<path id="Vector_3" d="M1.33337 18.0002C1.33337 10.1435 1.33337 6.21516 3.77337 3.7735C6.21671 1.3335 10.1434 1.3335 18 1.3335C25.8567 1.3335 29.785 1.3335 32.225 3.7735C34.6667 6.21683 34.6667 10.1435 34.6667 18.0002C34.6667 25.8568 34.6667 29.7852 32.225 32.2252C29.7867 34.6668 25.8567 34.6668 18 34.6668C10.1434 34.6668 6.21504 34.6668 3.77337 32.2252C1.33337 29.7868 1.33337 25.8568 1.33337 18.0002Z" stroke="black" stroke-width="2.5" opacity="0.5"/>
</g>
</svg>
