<svg width="36" height="36" viewBox="0 0 36 36" fill="none" xmlns="http://www.w3.org/2000/svg">
<g id="Group">
<path id="Vector" d="M1.33337 26.1666C1.33337 23.9833 1.33337 22.8933 1.82504 22.0916C2.09982 21.6434 2.47675 21.2664 2.92504 20.9916C3.72504 20.5 4.81837 20.5 7.00004 20.5H8.83337C11.9767 20.5 13.5467 20.5 14.5234 21.4766C15.5 22.4533 15.5 24.0233 15.5 27.1666V29C15.5 31.1833 15.5 32.2733 15.0084 33.075C14.7336 33.5233 14.3567 33.9002 13.9084 34.175C13.1084 34.6666 12.015 34.6666 9.83337 34.6666C6.56004 34.6666 4.92337 34.6666 3.72171 33.93C3.04927 33.5178 2.48387 32.9524 2.07171 32.28M34.6667 9.83331C34.6667 12.0166 34.6667 13.1066 34.175 13.9083C33.9003 14.3566 33.5233 14.7335 33.075 15.0083C32.275 15.5 31.1817 15.5 29 15.5H27.1667C24.0234 15.5 22.4534 15.5 21.4767 14.5233C20.5 13.5466 20.5 11.9766 20.5 8.83331V6.99998C20.5 4.81665 20.5 3.72665 20.9917 2.92498C21.2665 2.47669 21.6434 2.09976 22.0917 1.82498C22.8917 1.33331 23.985 1.33331 26.1667 1.33331C29.44 1.33331 31.0767 1.33331 32.28 2.06998C32.9525 2.48215 33.5179 3.04754 33.93 3.71998" stroke="white" stroke-width="2.5" stroke-linecap="round"/>
<path id="Vector_2" d="M26.3948 7.30926L26.3948 7.30935L26.3948 7.30935L26.394 7.31091C26.3929 7.31308 26.39 7.31948 26.386 7.33213C26.3774 7.3593 26.3655 7.41009 26.3557 7.50149C26.3345 7.69949 26.3333 7.96916 26.3333 8.41665C26.3333 8.86399 26.3344 9.13407 26.3555 9.33248C26.3653 9.42416 26.3772 9.47534 26.3858 9.50292C26.3899 9.51577 26.3929 9.52235 26.394 9.52465L26.3948 9.52635C26.4163 9.55573 26.4423 9.58142 26.4721 9.60238L26.476 9.60515M26.3948 7.30926L26.4759 9.60513C26.4759 9.60511 26.4759 9.60512 26.476 9.60515M26.3948 7.30926L26.3949 7.30923L26.3948 7.30926ZM26.3948 7.30926L26.3976 7.30537M26.3948 7.30926L26.3976 7.30537M26.476 9.60515L26.476 9.60519L26.476 9.60519L26.4776 9.60601C26.4798 9.60706 26.4862 9.61 26.4988 9.614C26.526 9.62259 26.5768 9.63451 26.6682 9.64431C26.8662 9.66553 27.1359 9.66665 27.5833 9.66665C28.0307 9.66665 28.3008 9.66555 28.4992 9.64444C28.5908 9.63469 28.642 9.6228 28.6696 9.61415C28.6825 9.61012 28.689 9.60713 28.6913 9.60601L28.693 9.60513C28.7224 9.58372 28.7481 9.55763 28.7691 9.52792L28.7719 9.52397L28.7719 9.52394L28.7727 9.52238C28.7738 9.52021 28.7767 9.51381 28.7807 9.50116C28.7893 9.474 28.8012 9.4232 28.811 9.3318C28.8322 9.1338 28.8333 8.86413 28.8333 8.41665C28.8333 7.9693 28.8322 7.69923 28.8111 7.50081C28.8014 7.40914 28.7895 7.35795 28.7808 7.33037C28.7768 7.31752 28.7738 7.31094 28.7727 7.30864L28.7718 7.30694C28.7504 7.27756 28.7243 7.25188 28.6946 7.23091L28.6907 7.22815M26.476 9.60515L28.6907 7.22817C28.6908 7.22819 28.6908 7.22818 28.6907 7.22815M28.6907 7.22815L28.6907 7.22811M28.6907 7.22815L28.6907 7.22811M26.3976 7.30537C26.4186 7.27566 26.4442 7.24958 26.4736 7.22816L26.4753 7.22728C26.4776 7.22616 26.4842 7.22318 26.4971 7.21914C26.5246 7.21049 26.5758 7.1986 26.6675 7.18885C26.8659 7.16775 27.136 7.16665 27.5833 7.16665C28.0308 7.16665 28.3005 7.16776 28.4985 7.18898C28.5899 7.19878 28.6407 7.21071 28.6678 7.21929C28.6805 7.22329 28.6869 7.22623 28.6891 7.22729L28.6906 7.2281L28.6907 7.22811M26.3976 7.30537L28.6907 7.22811M23.6376 20.9842C23.3964 21.0087 23.1859 21.0416 22.9992 21.0849L22.5111 20.3551C22.8238 20.256 23.1674 20.1947 23.5518 20.1558C24.0877 20.1024 24.7275 20.0883 25.5 20.0846V20.9178C24.736 20.9212 24.1336 20.9342 23.6381 20.9842L23.6376 20.9842ZM27.1667 20.9166V20.0833H28.8333V20.9166H27.1667ZM20.3557 22.5115L21.0849 22.9992C21.0417 23.1854 21.0089 23.3953 20.9844 23.6358C20.933 24.1327 20.9206 24.7359 20.9176 25.5H20.0844C20.0877 24.7267 20.1012 24.0879 20.1557 23.5528L20.1558 23.5523C20.1946 23.1684 20.2562 22.8246 20.3557 22.5115ZM31.6208 34.2068L31.9528 35.0085C31.8161 35.0273 31.6722 35.0412 31.5193 35.0518C31.2263 35.0707 30.8903 35.0782 30.5 35.0813V34.2482C30.8782 34.2455 31.1922 34.2383 31.4622 34.2197L31.4636 34.2196C31.5182 34.2157 31.5705 34.2115 31.6208 34.2068ZM33.5017 34.3925L33.1723 33.5972C33.2501 33.534 33.3246 33.4668 33.3957 33.3957C33.4668 33.3246 33.5341 33.25 33.5972 33.1723L34.3926 33.5017C34.2709 33.6732 34.1346 33.8347 33.9851 33.984C33.8352 34.1339 33.6734 34.2705 33.5017 34.3925ZM35.0077 31.9525L34.2068 31.6208C34.2115 31.5705 34.2158 31.5181 34.2196 31.4636L34.2197 31.4622C34.2383 31.1922 34.2455 30.8782 34.2483 30.5H35.0812C35.078 30.8904 35.07 31.2264 35.0502 31.5187L35.0502 31.5199C35.0401 31.672 35.0264 31.8156 35.0077 31.9525ZM26.3949 9.52649C26.3949 9.52653 26.3949 9.52654 26.3949 9.52649L26.3949 9.52649ZM20.9167 33.8333H20.0833V30.5H20.9167V33.8333ZM34.25 21.3333H35.0833V25.5H34.25V21.3333ZM28.8333 35.0833H27.1667V34.25H28.8333V35.0833Z" fill="white" stroke="white" stroke-width="1.66667"/>
<path id="Vector_3" d="M1.33337 9.83331C1.33337 6.55998 1.33337 4.92331 2.07004 3.72165C2.48221 3.04921 3.0476 2.48381 3.72004 2.07165C4.92504 1.33331 6.56171 1.33331 9.83337 1.33331C12.0167 1.33331 13.1067 1.33331 13.9084 1.82498C14.3567 2.09976 14.7336 2.47669 15.0084 2.92498C15.5 3.72498 15.5 4.81831 15.5 6.99998V8.83331C15.5 11.9766 15.5 13.5466 14.5234 14.5233C13.5467 15.5 11.9767 15.5 8.83337 15.5H7.00004C4.81671 15.5 3.72671 15.5 2.92504 15.0083C2.47675 14.7335 2.09982 14.3566 1.82504 13.9083C1.33337 13.1083 1.33337 12.015 1.33337 9.83331Z" stroke="white" stroke-width="2.5"/>
<path id="Vector_4" d="M6.33337 8.41665C6.33337 7.55831 6.33337 7.12831 6.55004 6.82498C6.62553 6.71798 6.7185 6.62445 6.82504 6.54831C7.12837 6.33331 7.55837 6.33331 8.41671 6.33331C9.27504 6.33331 9.70504 6.33331 10.0084 6.54998C10.1154 6.62547 10.2089 6.71844 10.285 6.82498C10.5 7.12831 10.5 7.55831 10.5 8.41665C10.5 9.27498 10.5 9.70498 10.2834 10.0083C10.2079 10.1153 10.1149 10.2088 10.0084 10.285C9.70504 10.5 9.27504 10.5 8.41671 10.5C7.55837 10.5 7.12837 10.5 6.82504 10.2833C6.71804 10.2078 6.62451 10.1149 6.54837 10.0083C6.33337 9.70498 6.33337 9.27498 6.33337 8.41665ZM6.33337 27.5833C6.33337 26.725 6.33337 26.295 6.55004 25.9916C6.62553 25.8846 6.7185 25.7911 6.82504 25.715C7.12837 25.5 7.55837 25.5 8.41671 25.5C9.27504 25.5 9.70504 25.5 10.0084 25.7166C10.1154 25.7921 10.2089 25.8851 10.285 25.9916C10.5 26.295 10.5 26.725 10.5 27.5833C10.5 28.4416 10.5 28.8716 10.2834 29.175C10.2079 29.282 10.1149 29.3755 10.0084 29.4516C9.70504 29.6666 9.27504 29.6666 8.41671 29.6666C7.55837 29.6666 7.12837 29.6666 6.82504 29.45C6.71804 29.3745 6.62451 29.2815 6.54837 29.175C6.33337 28.8716 6.33337 28.4416 6.33337 27.5833ZM24.6667 27.5833C24.6667 26.4133 24.6667 25.8283 24.9484 25.4066C25.0697 25.2253 25.2254 25.0696 25.4067 24.9483C25.8284 24.6666 26.4134 24.6666 27.5834 24.6666C28.7534 24.6666 29.3384 24.6666 29.76 24.9483C29.9413 25.0696 30.0971 25.2253 30.2184 25.4066C30.5 25.8283 30.5 26.4133 30.5 27.5833C30.5 28.7533 30.5 29.3383 30.2184 29.76C30.0971 29.9413 29.9413 30.097 29.76 30.2183C29.3384 30.5 28.7534 30.5 27.5834 30.5C26.4134 30.5 25.8284 30.5 25.4067 30.2183C25.2254 30.097 25.0697 29.9413 24.9484 29.76C24.6667 29.3383 24.6667 28.7533 24.6667 27.5833Z" fill="white"/>
</g>
</svg>
