<svg width="36" height="36" viewBox="0 0 36 36" fill="none" xmlns="http://www.w3.org/2000/svg">
<g id="Group">
<path id="Vector" d="M1.33331 26.1666C1.33331 23.9833 1.33331 22.8933 1.82498 22.0916C2.09976 21.6434 2.47669 21.2664 2.92498 20.9916C3.72498 20.5 4.81831 20.5 6.99998 20.5H8.83331C11.9766 20.5 13.5466 20.5 14.5233 21.4766C15.5 22.4533 15.5 24.0233 15.5 27.1666V29C15.5 31.1833 15.5 32.2733 15.0083 33.075C14.7335 33.5233 14.3566 33.9002 13.9083 34.175C13.1083 34.6666 12.015 34.6666 9.83331 34.6666C6.55998 34.6666 4.92331 34.6666 3.72165 33.93C3.04921 33.5178 2.48381 32.9524 2.07165 32.28M34.6666 9.83331C34.6666 12.0166 34.6666 13.1066 34.175 13.9083C33.9002 14.3566 33.5233 14.7335 33.075 15.0083C32.275 15.5 31.1816 15.5 29 15.5H27.1666C24.0233 15.5 22.4533 15.5 21.4766 14.5233C20.5 13.5466 20.5 11.9766 20.5 8.83331V6.99998C20.5 4.81665 20.5 3.72665 20.9916 2.92498C21.2664 2.47669 21.6434 2.09976 22.0916 1.82498C22.8916 1.33331 23.985 1.33331 26.1666 1.33331C29.44 1.33331 31.0766 1.33331 32.28 2.06998C32.9524 2.48215 33.5178 3.04754 33.93 3.71998" stroke="black" stroke-width="2.5" stroke-linecap="round"/>
<path id="Vector_2" d="M25.5 8.41665C25.5 7.55831 25.5 7.12831 25.7167 6.82498C25.7922 6.71798 25.8851 6.62445 25.9917 6.54831C26.295 6.33331 26.725 6.33331 27.5833 6.33331C28.4417 6.33331 28.8717 6.33331 29.175 6.54998C29.282 6.62547 29.3755 6.71844 29.4517 6.82498C29.6667 7.12831 29.6667 7.55831 29.6667 8.41665C29.6667 9.27498 29.6667 9.70498 29.45 10.0083C29.3745 10.1153 29.2815 10.2088 29.175 10.285C28.8717 10.5 28.4417 10.5 27.5833 10.5C26.725 10.5 26.295 10.5 25.9917 10.2833C25.8847 10.2078 25.7911 10.1149 25.715 10.0083C25.5 9.70498 25.5 9.27498 25.5 8.41665ZM19.25 34.6666C19.25 34.9982 19.3817 35.3161 19.6161 35.5505C19.8505 35.785 20.1685 35.9166 20.5 35.9166C20.8315 35.9166 21.1495 35.785 21.3839 35.5505C21.6183 35.3161 21.75 34.9982 21.75 34.6666H19.25ZM29.6667 19.25H26.3333V21.75H29.6667V19.25ZM19.25 29.6666V34.6666H21.75V29.6666H19.25ZM26.3333 19.25C25.1883 19.25 24.2367 19.25 23.4683 19.3266C22.6783 19.4066 21.9467 19.5816 21.2867 20.0233L22.6767 22.1016C22.8567 21.98 23.13 21.8733 23.7217 21.8133C24.3333 21.7516 25.1383 21.75 26.3333 21.75V19.25ZM21.75 26.3333C21.75 25.1366 21.75 24.3333 21.8133 23.7216C21.8733 23.13 21.98 22.8566 22.1017 22.6766L20.0233 21.2866C19.5833 21.9466 19.4067 22.6783 19.3267 23.4683C19.2483 24.2366 19.25 25.1883 19.25 26.3333H21.75ZM21.2867 20.0233C20.7867 20.3566 20.3567 20.7866 20.0233 21.2866L22.1017 22.6766C22.2553 22.4504 22.4504 22.2553 22.6767 22.1016L21.2867 20.0233ZM35.9167 20.5C35.9167 20.1685 35.785 19.8505 35.5506 19.6161C35.3161 19.3817 34.9982 19.25 34.6667 19.25C34.3351 19.25 34.0172 19.3817 33.7828 19.6161C33.5484 19.8505 33.4167 20.1685 33.4167 20.5H35.9167ZM26.3333 35.9166H29.6667V33.4166H26.3333V35.9166ZM35.9167 26.3333V20.5H33.4167V26.3333H35.9167ZM29.6667 35.9166C30.4267 35.9166 31.0583 35.9166 31.575 35.8833C32.1033 35.8466 32.6033 35.77 33.0867 35.5683L32.13 33.2583C32.0017 33.3116 31.8067 33.36 31.405 33.3883C30.9933 33.4166 30.46 33.4166 29.6667 33.4166V35.9166ZM33.4167 29.6666C33.4167 30.46 33.4167 30.9933 33.3883 31.405C33.36 31.8066 33.3117 32.0016 33.2583 32.13L35.5683 33.0866C35.7683 32.6033 35.8467 32.1033 35.8817 31.575C35.9167 31.0583 35.9167 30.425 35.9167 29.6666H33.4167ZM33.0867 35.5683C33.6429 35.3382 34.1484 34.999 34.5742 34.5735C35 34.148 35.3378 33.6427 35.5683 33.0866L33.2583 32.13C33.1536 32.383 33.0001 32.6129 32.8065 32.8065C32.6129 33.0001 32.383 33.1536 32.13 33.2583L33.0867 35.5683Z" fill="black"/>
<path id="Vector_3" d="M1.33331 9.83331C1.33331 6.55998 1.33331 4.92331 2.06998 3.72165C2.48215 3.04921 3.04754 2.48381 3.71998 2.07165C4.92498 1.33331 6.56165 1.33331 9.83331 1.33331C12.0166 1.33331 13.1066 1.33331 13.9083 1.82498C14.3566 2.09976 14.7335 2.47669 15.0083 2.92498C15.5 3.72498 15.5 4.81831 15.5 6.99998V8.83331C15.5 11.9766 15.5 13.5466 14.5233 14.5233C13.5466 15.5 11.9766 15.5 8.83331 15.5H6.99998C4.81665 15.5 3.72665 15.5 2.92498 15.0083C2.47669 14.7335 2.09976 14.3566 1.82498 13.9083C1.33331 13.1083 1.33331 12.015 1.33331 9.83331Z" stroke="black" stroke-width="2.5"/>
<path id="Vector_4" d="M6.33331 8.41665C6.33331 7.55831 6.33331 7.12831 6.54998 6.82498C6.62547 6.71798 6.71844 6.62445 6.82498 6.54831C7.12831 6.33331 7.55831 6.33331 8.41665 6.33331C9.27498 6.33331 9.70498 6.33331 10.0083 6.54998C10.1153 6.62547 10.2088 6.71844 10.285 6.82498C10.5 7.12831 10.5 7.55831 10.5 8.41665C10.5 9.27498 10.5 9.70498 10.2833 10.0083C10.2078 10.1153 10.1149 10.2088 10.0083 10.285C9.70498 10.5 9.27498 10.5 8.41665 10.5C7.55831 10.5 7.12831 10.5 6.82498 10.2833C6.71798 10.2078 6.62445 10.1149 6.54831 10.0083C6.33331 9.70498 6.33331 9.27498 6.33331 8.41665ZM6.33331 27.5833C6.33331 26.725 6.33331 26.295 6.54998 25.9916C6.62547 25.8846 6.71844 25.7911 6.82498 25.715C7.12831 25.5 7.55831 25.5 8.41665 25.5C9.27498 25.5 9.70498 25.5 10.0083 25.7166C10.1153 25.7921 10.2088 25.8851 10.285 25.9916C10.5 26.295 10.5 26.725 10.5 27.5833C10.5 28.4416 10.5 28.8716 10.2833 29.175C10.2078 29.282 10.1149 29.3755 10.0083 29.4516C9.70498 29.6666 9.27498 29.6666 8.41665 29.6666C7.55831 29.6666 7.12831 29.6666 6.82498 29.45C6.71798 29.3745 6.62445 29.2815 6.54831 29.175C6.33331 28.8716 6.33331 28.4416 6.33331 27.5833ZM24.6666 27.5833C24.6666 26.4133 24.6666 25.8283 24.9483 25.4066C25.0696 25.2253 25.2253 25.0696 25.4066 24.9483C25.8283 24.6666 26.4133 24.6666 27.5833 24.6666C28.7533 24.6666 29.3383 24.6666 29.76 24.9483C29.9413 25.0696 30.097 25.2253 30.2183 25.4066C30.5 25.8283 30.5 26.4133 30.5 27.5833C30.5 28.7533 30.5 29.3383 30.2183 29.76C30.097 29.9413 29.9413 30.097 29.76 30.2183C29.3383 30.5 28.7533 30.5 27.5833 30.5C26.4133 30.5 25.8283 30.5 25.4066 30.2183C25.2253 30.097 25.0696 29.9413 24.9483 29.76C24.6666 29.3383 24.6666 28.7533 24.6666 27.5833Z" fill="black"/>
</g>
</svg>
