<svg width="40" height="40" viewBox="0 0 40 40" fill="none" xmlns="http://www.w3.org/2000/svg">
<g id="Log out">
<path id="Vector" d="M24.9083 2.08331C22.63 2.08331 20.7916 2.08331 19.3466 2.27831C17.8466 2.47831 16.5833 2.91165 15.58 3.91331C14.7066 4.78831 14.2633 5.86331 14.0316 7.12665C13.8066 8.35498 13.7633 9.85665 13.7533 11.66C13.7515 11.9915 13.8815 12.3101 14.1147 12.5458C14.3479 12.7815 14.6651 12.9149 14.9966 12.9166C15.3282 12.9184 15.6468 12.7884 15.8825 12.5552C16.1182 12.3221 16.2515 12.0048 16.2533 11.6733C16.2633 9.85165 16.31 8.55998 16.49 7.57831C16.665 6.63498 16.9433 6.08665 17.3483 5.68165C17.81 5.21998 18.4583 4.91998 19.6816 4.75498C20.94 4.58665 22.6083 4.58331 25 4.58331H26.6666C29.06 4.58331 30.7283 4.58665 31.9866 4.75498C33.21 4.91998 33.8566 5.22165 34.32 5.68165C34.78 6.14331 35.08 6.78998 35.245 8.01498C35.415 9.27165 35.4166 10.9416 35.4166 13.3333V26.6666C35.4166 29.0583 35.415 30.7266 35.245 31.9866C35.08 33.21 34.78 33.8566 34.3183 34.3183C33.8566 34.78 33.21 35.08 31.9866 35.245C30.7283 35.4133 29.06 35.4166 26.6666 35.4166H25C22.6083 35.4166 20.94 35.4133 19.68 35.245C18.4583 35.08 17.81 34.7783 17.3483 34.3183C16.9433 33.9116 16.665 33.365 16.49 32.4216C16.31 31.44 16.2633 30.1483 16.2533 28.3266C16.2524 28.1625 16.2192 28.0001 16.1556 27.8488C16.092 27.6975 15.9992 27.5602 15.8825 27.4447C15.7658 27.3293 15.6275 27.2379 15.4755 27.1759C15.3235 27.1139 15.1608 27.0824 14.9966 27.0833C14.8325 27.0842 14.6701 27.1174 14.5188 27.181C14.3675 27.2446 14.2302 27.3375 14.1147 27.4541C13.9993 27.5708 13.9079 27.7091 13.8459 27.8611C13.7839 28.0131 13.7524 28.1758 13.7533 28.34C13.7633 30.1433 13.8066 31.645 14.0316 32.8733C14.265 34.1366 14.7066 35.2116 15.5816 36.0866C16.5833 37.09 17.8483 37.52 19.3483 37.7233C20.7916 37.9166 22.63 37.9166 24.9083 37.9166H26.7583C29.0383 37.9166 30.875 37.9166 32.32 37.7233C33.82 37.52 35.0833 37.09 36.0866 36.0866C37.09 35.0833 37.52 33.82 37.7233 32.32C37.9166 30.875 37.9166 29.0366 37.9166 26.7583V13.2416C37.9166 10.9633 37.9166 9.12498 37.7233 7.67998C37.5216 6.17998 37.09 4.91665 36.0866 3.91331C35.0833 2.90998 33.82 2.47998 32.32 2.27831C30.875 2.08331 29.0366 2.08331 26.7583 2.08331H24.9083Z" fill="white"/>
<path id="Vector_2" d="M25 18.75C25.3315 18.75 25.6495 18.8817 25.8839 19.1161C26.1183 19.3505 26.25 19.6685 26.25 20C26.25 20.3315 26.1183 20.6495 25.8839 20.8839C25.6495 21.1183 25.3315 21.25 25 21.25H6.71166L9.97999 24.05C10.2319 24.2657 10.3879 24.5727 10.4135 24.9034C10.4392 25.234 10.3324 25.5614 10.1167 25.8133C9.90095 26.0653 9.59399 26.2212 9.2633 26.2469C8.93261 26.2725 8.60528 26.1657 8.35333 25.95L2.51999 20.95C2.38277 20.8326 2.2726 20.687 2.19705 20.523C2.12151 20.359 2.0824 20.1806 2.0824 20C2.0824 19.8194 2.12151 19.641 2.19705 19.477C2.2726 19.313 2.38277 19.1673 2.51999 19.05L8.35333 14.05C8.47808 13.9432 8.62265 13.862 8.77879 13.8111C8.93492 13.7601 9.09956 13.7404 9.2633 13.7531C9.42704 13.7658 9.58668 13.8106 9.7331 13.885C9.87952 13.9594 10.0099 14.0619 10.1167 14.1867C10.2235 14.3114 10.3047 14.456 10.3556 14.6121C10.4065 14.7683 10.4262 14.9329 10.4135 15.0966C10.4008 15.2604 10.356 15.42 10.2816 15.5664C10.2072 15.7129 10.1047 15.8432 9.97999 15.95L6.71333 18.75H25Z" fill="white"/>
</g>
</svg>
