<svg width="40" height="40" viewBox="0 0 40 40" fill="none" xmlns="http://www.w3.org/2000/svg">
<g id="Saludo">
<path id="Vector" fill-rule="evenodd" clip-rule="evenodd" d="M31.51 6.53665C29.82 4.80999 27.41 4.17499 25.0517 4.84499C24.892 4.89624 24.7237 4.91484 24.5567 4.89968C24.3897 4.88453 24.2274 4.83593 24.0796 4.75677C23.9318 4.67762 23.8014 4.56954 23.6962 4.43895C23.591 4.30836 23.5132 4.15795 23.4673 3.99666C23.4214 3.83536 23.4085 3.66649 23.4293 3.5001C23.45 3.3337 23.504 3.17318 23.5881 3.0281C23.6722 2.88301 23.7846 2.75632 23.9186 2.65557C24.0527 2.55482 24.2056 2.48207 24.3683 2.44165C27.5967 1.52165 30.9583 2.39999 33.2967 4.78832C33.4141 4.90508 33.5071 5.04401 33.5704 5.19703C33.6336 5.35004 33.6659 5.51411 33.6652 5.67969C33.6645 5.84527 33.631 6.00906 33.5665 6.16156C33.502 6.31406 33.4078 6.45223 33.2895 6.56804C33.1711 6.68384 33.0309 6.77498 32.8771 6.83616C32.7232 6.89734 32.5587 6.92735 32.3932 6.92443C32.2276 6.92151 32.0643 6.88572 31.9127 6.81916C31.7611 6.75259 31.6242 6.65656 31.51 6.53665ZM18.65 5.51332C18.2933 4.90165 17.2533 4.52999 16.1983 5.13499C15.145 5.73499 14.96 6.79665 15.3117 7.39665L19.52 14.6167C19.6098 14.7586 19.6701 14.9172 19.6972 15.0829C19.7244 15.2487 19.7178 15.4182 19.678 15.5814C19.6381 15.7446 19.5658 15.898 19.4654 16.0326C19.3649 16.1672 19.2383 16.2802 19.0932 16.3648C18.9481 16.4494 18.7875 16.5039 18.6208 16.525C18.4542 16.5461 18.285 16.5334 18.1234 16.4877C17.9618 16.442 17.811 16.3642 17.6802 16.2589C17.5493 16.1536 17.441 16.0231 17.3617 15.875L13.15 8.65665L11.7483 6.24999C11.3917 5.63832 10.3517 5.26665 9.29668 5.87165C8.24334 6.47165 8.05834 7.53332 8.40834 8.13332L14.7233 18.9617C14.8061 19.1035 14.8601 19.2602 14.8822 19.4229C14.9044 19.5856 14.8943 19.7511 14.8525 19.9099C14.8107 20.0686 14.7381 20.2176 14.6387 20.3484C14.5393 20.4791 14.4152 20.5889 14.2733 20.6717C14.1315 20.7544 13.9748 20.8084 13.8121 20.8305C13.6494 20.8527 13.4839 20.8426 13.3251 20.8008C13.1664 20.759 13.0174 20.6864 12.8866 20.587C12.7559 20.4876 12.6461 20.3635 12.5633 20.2217L9.75668 15.4083C9.40001 14.7967 8.36168 14.425 7.30501 15.03C6.25334 15.63 6.06668 16.69 6.41834 17.2917L12.7317 28.12C15.415 32.7183 22.0317 34.21 27.6433 31.0033C33.25 27.7983 35.2433 21.3967 32.5683 16.8083L28.3583 9.58999C28.0017 8.97832 26.9617 8.60665 25.9067 9.20999C24.8533 9.81165 24.67 10.8717 25.02 11.4733L27.8267 16.285C27.9101 16.4277 27.9644 16.5855 27.9864 16.7493C28.0084 16.9131 27.9977 17.0797 27.9549 17.2393C27.9121 17.399 27.8381 17.5485 27.7371 17.6794C27.6362 17.8103 27.5103 17.9198 27.3667 18.0017C24.795 19.4683 24.0083 22.31 25.1333 24.24C25.2161 24.3818 25.2701 24.5385 25.2922 24.7012C25.3144 24.8639 25.3043 25.0294 25.2625 25.1882C25.2207 25.347 25.1481 25.496 25.0487 25.6267C24.9493 25.7574 24.8252 25.8673 24.6833 25.95C24.5415 26.0327 24.3848 26.0867 24.2221 26.1089C24.0594 26.131 23.8939 26.1209 23.7351 26.0791C23.5764 26.0374 23.4274 25.9647 23.2966 25.8653C23.1659 25.766 23.0561 25.6418 22.9733 25.5C21.2067 22.4717 22.32 18.7283 25.0783 16.5383L18.65 5.51332ZM23.2 8.34999L20.8117 4.25665C19.6183 2.20999 16.94 1.83332 14.96 2.96665C14.3564 3.3084 13.8366 3.7804 13.4383 4.34832C12.105 2.87999 9.80834 2.70165 8.05668 3.70165C6.07334 4.83665 5.05168 7.33832 6.25168 9.39499L7.92168 12.26C7.26901 12.3319 6.63784 12.5361 6.06668 12.86C4.08168 13.9933 3.06001 16.4967 4.26001 18.5533L10.575 29.3817C14.0917 35.415 22.3483 36.9117 28.885 33.175C35.425 29.4383 38.2533 21.5933 34.73 15.55L30.5167 8.33332C29.3233 6.28665 26.645 5.90999 24.665 7.04165C24.0817 7.37499 23.5817 7.82665 23.1967 8.34999M7.35668 29.7667C7.49849 29.6839 7.65523 29.6299 7.81793 29.6077C7.98063 29.5855 8.14611 29.5956 8.30491 29.6374C8.46371 29.6792 8.61272 29.7518 8.74343 29.8512C8.87413 29.9506 8.98398 30.0748 9.06668 30.2167C10.445 32.58 12.55 34.3667 15.15 35.5267C15.4528 35.6619 15.6895 35.9119 15.8079 36.2217C15.9264 36.5314 15.9169 36.8755 15.7817 37.1783C15.6464 37.4811 15.3964 37.7178 15.0867 37.8362C14.7769 37.9547 14.4328 37.9453 14.13 37.81C11.1117 36.4617 8.57834 34.3433 6.90668 31.4767C6.8239 31.3348 6.76988 31.1781 6.7477 31.0154C6.72552 30.8527 6.73561 30.6872 6.7774 30.5284C6.81919 30.3696 6.89185 30.2206 6.99125 30.0899C7.09064 29.9592 7.21482 29.8494 7.35668 29.7667Z" fill="white"/>
</g>
</svg>
