<svg width="36" height="35" viewBox="0 0 36 35" fill="none" xmlns="http://www.w3.org/2000/svg">
<g id="Group">
<path id="Vector" d="M27.0233 14.3567C28 13.38 28 11.81 28 8.66667C28 5.52333 28 3.95333 27.0233 2.97667M27.0233 14.3567C26.0467 15.3333 24.4767 15.3333 21.3333 15.3333H14.6667C11.5233 15.3333 9.95333 15.3333 8.97667 14.3567M27.0233 2.97667C26.0467 2 24.4767 2 21.3333 2H14.6667C11.5233 2 9.95333 2 8.97667 2.97667M8.97667 2.97667C8 3.95333 8 5.52333 8 8.66667C8 11.81 8 13.38 8.97667 14.3567M19.6667 8.66667C19.6667 9.10869 19.4911 9.53262 19.1785 9.84518C18.866 10.1577 18.442 10.3333 18 10.3333C17.558 10.3333 17.134 10.1577 16.8215 9.84518C16.5089 9.53262 16.3333 9.10869 16.3333 8.66667C16.3333 8.22464 16.5089 7.80072 16.8215 7.48816C17.134 7.17559 17.558 7 18 7C18.442 7 18.866 7.17559 19.1785 7.48816C19.4911 7.80072 19.6667 8.22464 19.6667 8.66667Z" stroke="black" stroke-width="2.5"/>
<path id="Vector_2" d="M28 7C26.6739 7 25.4021 6.47322 24.4644 5.53553C23.5268 4.59785 23 3.32608 23 2M28 10.3333C26.6739 10.3333 25.4021 10.8601 24.4644 11.7978C23.5268 12.7355 23 14.0073 23 15.3333M7.99998 7C9.32606 7 10.5978 6.47322 11.5355 5.53553C12.4732 4.59785 13 3.32608 13 2M7.99998 10.3333C9.32606 10.3333 10.5978 10.8601 11.5355 11.7978C12.4732 12.7355 13 14.0073 13 15.3333M6.33331 30.98H10.1C11.7833 30.98 13.4883 31.1567 15.1266 31.4933C18.0519 32.0924 21.0611 32.159 24.01 31.69C25.4566 31.4567 26.8766 31.0983 28.1633 30.4783C29.3233 29.9167 30.745 29.1283 31.7 28.2433C32.6533 27.36 33.6466 25.915 34.35 24.785C34.9566 23.815 34.6633 22.6267 33.7066 21.905C33.1688 21.5147 32.5212 21.3045 31.8566 21.3045C31.1921 21.3045 30.5445 21.5147 30.0066 21.905L26.995 24.18C25.8283 25.0633 24.5533 25.875 23.035 26.1167C22.8516 26.1456 22.66 26.1717 22.46 26.195M22.46 26.195L22.2766 26.215M22.46 26.195C22.7267 26.1227 22.9713 25.9853 23.1716 25.795C23.4232 25.578 23.6286 25.3127 23.7758 25.0149C23.923 24.717 24.0089 24.3927 24.0285 24.0611C24.0481 23.7294 24.0009 23.3972 23.8898 23.0841C23.7787 22.771 23.6059 22.4834 23.3816 22.2383C23.1645 21.9972 22.9115 21.7909 22.6316 21.6267C17.97 18.845 10.715 20.9633 6.33331 24.0717M22.46 26.195C22.3998 26.2084 22.3383 26.2151 22.2766 26.215M22.2766 26.215C21.2715 26.3157 20.2589 26.318 19.2533 26.2217" stroke="black" stroke-width="2.5" stroke-linecap="round"/>
<path id="Vector_3" d="M6.33331 22.8333C6.33331 21.4526 5.21402 20.3333 3.83331 20.3333C2.4526 20.3333 1.33331 21.4526 1.33331 22.8333V31.1666C1.33331 32.5474 2.4526 33.6666 3.83331 33.6666C5.21402 33.6666 6.33331 32.5474 6.33331 31.1666V22.8333Z" stroke="black" stroke-width="2.5"/>
</g>
</svg>
