<svg width="36" height="36" viewBox="0 0 36 36" fill="none" xmlns="http://www.w3.org/2000/svg">
<g id="Group">
<path id="Vector" opacity="0.5" d="M18 18C20.7614 18 23 15.7614 23 13C23 10.2386 20.7614 8 18 8C15.2386 8 13 10.2386 13 13C13 15.7614 15.2386 18 18 18Z" stroke="black" stroke-width="2.5"/>
<path id="Vector_2" d="M18 34.6666C27.2047 34.6666 34.6666 27.2047 34.6666 18C34.6666 8.79523 27.2047 1.33331 18 1.33331C8.79523 1.33331 1.33331 8.79523 1.33331 18C1.33331 27.2047 8.79523 34.6666 18 34.6666Z" stroke="black" stroke-width="2.5"/>
<path id="Vector_3" opacity="0.5" d="M27.95 31.3333C27.6833 26.5133 26.2083 23 18 23C9.79165 23 8.31665 26.5133 8.04999 31.3333" stroke="black" stroke-width="2.5" stroke-linecap="round"/>
</g>
</svg>
